@startuml models
  hide circle
  skinparam linetype ortho
  skinparam roundcorner 20
  skinparam class {
    BackgroundColor White
    ArrowColor Silver
    BorderColor Silver
    FontColor Black
    FontSize 12
  }

  entity "host" as host {
    * **host_id**: INTEGER
    --
    * host_name: TEXT
      created_at: DATETIME
    * record_status_id: TEXT <<ENUM(record_status)>>
  }

  entity "graph" as graph {
    * **graph_id**: INTEGER
    --
    * graph_nature_id: TEXT <<ENUM(graph_nature)>>
    * name: TEXT
      description: TEXT
      created_at: DATETIME
    * record_status_id: TEXT <<ENUM(record_status)>>
  }

  entity "boundary" as boundary {
    * **boundary_id**: INTEGER
    --
      parent_boundary_id: INTEGER <<SELF>>
    * graph_id: INTEGER <<FK(graph)>>
    * boundary_nature_id: TEXT <<ENUM(boundary_nature)>>
    * name: TEXT
      created_at: DATETIME
    * record_status_id: TEXT <<ENUM(record_status)>>
  }

  entity "host_boundary" as host_boundary {
    * **host_boundary_id**: INTEGER
    --
    * host_id: INTEGER <<FK(host)>>
    * boundary_id: INTEGER <<FK(boundary)>>
      created_at: DATETIME
    * record_status_id: TEXT <<ENUM(record_status)>>
  }

  entity "raci_matrix" as raci_matrix {
    * **raci_matrix_id**: INTEGER
    --
    * asset: TEXT
    * responsible: TEXT
    * accountable: TEXT
    * consulted: TEXT
    * informed: TEXT
      created_at: DATETIME
    * record_status_id: TEXT <<ENUM(record_status)>>
  }

  entity "asset_risk" as asset_risk {
    * **asset_risk_id**: INTEGER
    --
    * asset_risk_type_id: TEXT <<ENUM(asset_risk_type)>>
    * asset: TEXT
    * threat_event: TEXT
    * relevance: TEXT
    * likelihood: TEXT
    * impact: TEXT
      created_at: DATETIME
    * record_status_id: TEXT <<ENUM(record_status)>>
  }

  entity "vulnerability" as vulnerability {
    * **vulnerability_id**: INTEGER
    --
    * short_name: TEXT
    * source: TEXT
    * affected_software: TEXT
    * reference: TEXT
    * status: TEXT
    * patch_availability: TEXT
    * severity: TEXT
    * solutions: TEXT
    * tags: TEXT
    * description: TEXT
      created_at: DATETIME
    * record_status_id: TEXT <<ENUM(record_status)>>
  }

  entity "threat_source" as threat_source {
    * **threat_source_id**: INTEGER
    --
    * threat_source: TEXT
    * identifier: TEXT
    * threat_source_type: TEXT
    * source_of_information: TEXT
    * capability: TEXT
    * intent: TEXT
    * targeting: TEXT
    * description: TEXT
      created_at: DATETIME
    * record_status_id: TEXT <<ENUM(record_status)>>
  }

  entity "threat_event" as threat_event {
    * **threat_event_id**: INTEGER
    --
    * threat_event: TEXT
    * identifier: TEXT
    * threat_event_type: INTEGER
    * event_classification: TEXT
    * source_of_information: TEXT
    * description: TEXT
      created_at: DATETIME
    * record_status_id: TEXT <<ENUM(record_status)>>
  }

  entity "billing" as billing {
    * **billing_id**: INTEGER
    --
    * purpose: TEXT
    * bill_rate: TEXT
    * period: TEXT
    * effective_from_date: DATETIME
    * effective_to_date: TEXT
    * prorate: INTEGER
      created_at: DATETIME
    * record_status_id: TEXT <<ENUM(record_status)>>
  }

  entity "scheduled_task" as scheduled_task {
    * **scheduled_task_id**: INTEGER
    --
    * description: TEXT
    * task_date: DATETIME
    * reminder_date: DATETIME
    * assigned_to: TEXT
    * reminder_to: TEXT
      created_at: DATETIME
    * record_status_id: TEXT <<ENUM(record_status)>>
  }

  entity "timesheet" as timesheet {
    * **timesheet_id**: INTEGER
    --
    * date_of_work: DATETIME
    * is_billable_id: TEXT <<ENUM(status_value)>>
    * number_of_hours: INTEGER
    * time_entry_category_id: TEXT <<ENUM(time_entry_category)>>
    * timesheet_summary: TEXT
      created_at: DATETIME
    * record_status_id: TEXT <<ENUM(record_status)>>
  }

  entity "certificate" as certificate {
    * **certificate_id**: INTEGER
    --
    * certificate_name: TEXT
    * short_name: TEXT
    * certificate_category: TEXT
    * certificate_type: TEXT
    * certificate_authority: TEXT
    * validity: TEXT
    * expiration_date: DATETIME
    * domain_name: TEXT
    * key_size: INTEGER
    * path: TEXT
      created_at: DATETIME
    * record_status_id: TEXT <<ENUM(record_status)>>
  }

  entity "device" as device {
    * **device_id**: INTEGER
    --
    * device_name: TEXT
    * short_name: TEXT
    * barcode: TEXT
    * model: TEXT
    * serial_number: TEXT
    * firmware: TEXT
    * data_center: TEXT
    * location: TEXT
    * purpose: TEXT
    * description: TEXT
      created_at: DATETIME
    * record_status_id: TEXT <<ENUM(record_status)>>
  }

  entity "party" as party {
    * **party_id**: INTEGER
    --
    * party_type_id: TEXT <<ENUM(party_type)>>
    * party_name: TEXT
      created_at: DATETIME
    * record_status_id: TEXT <<ENUM(record_status)>>
  }

  entity "person" as person {
    * **person_id**: INTEGER
    --
    * party_id: INTEGER <<FK(party)>>
    * person_type_id: TEXT <<ENUM(person_type)>>
    * person_first_name: TEXT
    * person_last_name: TEXT
      created_at: DATETIME
    * record_status_id: TEXT <<ENUM(record_status)>>
  }

  entity "organization" as organization {
    * **organization_id**: INTEGER
    --
    * party_id: INTEGER <<FK(party)>>
    * name: TEXT
    * license: TEXT
    * registration_date: DATE
      created_at: DATETIME
    * record_status_id: TEXT <<ENUM(record_status)>>
  }

  entity "party_relation" as party_relation {
    * **party_relation_id**: INTEGER
    --
    * party_id: INTEGER <<FK(party)>>
    * related_party_id: INTEGER <<FK(party)>>
    * relation_type_id: TEXT <<ENUM(party_relation_type)>>
    * party_role_id: TEXT <<ENUM(party_role_type)>>
      created_at: DATETIME
    * record_status_id: TEXT <<ENUM(record_status)>>
  }

  entity "contact_electronic" as contact_electronic {
    * **contact_electronic_id**: INTEGER
    --
    * contact_type_id: TEXT <<ENUM(contact_type)>>
    * party_id: INTEGER <<FK(party)>>
    * electronics_details: TEXT
      created_at: DATETIME
    * record_status_id: TEXT <<ENUM(record_status)>>
  }

  entity "contact_land" as contact_land {
    * **contact_land_id**: INTEGER
    --
    * contact_type_id: TEXT <<ENUM(contact_type)>>
    * party_id: INTEGER <<FK(party)>>
    * address_line1: TEXT
    * address_line2: TEXT
    * address_zip: TEXT
    * address_city: TEXT
    * address_state: TEXT
    * address_country: TEXT
      created_at: DATETIME
    * record_status_id: TEXT <<ENUM(record_status)>>
  }

  entity "organization_role" as organization_role {
    * **organization_role_id**: INTEGER
    --
    * person_party_id: INTEGER <<FK(party)>>
    * organization_party_id: INTEGER <<FK(party)>>
    * organization_role_type_id: TEXT <<ENUM(organization_role_type)>>
      created_at: DATETIME
    * record_status_id: TEXT <<ENUM(record_status)>>
  }

  entity "security_incident_response_team" as security_incident_response_team {
    * **security_incident_response_team_id**: INTEGER
    --
    * person_id: INTEGER <<FK(person)>>
    * organization_id: INTEGER <<FK(organization)>>
      created_at: DATETIME
    * record_status_id: TEXT <<ENUM(record_status)>>
  }

  entity "awareness_training" as awareness_training {
    * **awareness_training_id**: INTEGER
    --
    * training_subject_id: TEXT <<ENUM(training_subject)>>
    * person_id: INTEGER <<FK(person)>>
    * organization_id: INTEGER <<FK(organization)>>
    * training_status_id: TEXT <<ENUM(status_value)>>
      created_at: DATETIME
    * record_status_id: TEXT <<ENUM(record_status)>>
  }

  entity "rating" as rating {
    * **rating_id**: INTEGER
    --
    * author_id: INTEGER <<FK(party)>>
    * rating_given_to_id: INTEGER <<FK(party)>>
    * rating_value_id: TEXT <<ENUM(rating_value)>>
    * best_rating_id: TEXT <<ENUM(rating_value)>>
    * rating_explanation: TEXT
    * review_aspect: TEXT
    * worst_rating_id: TEXT <<ENUM(rating_value)>>
      created_at: DATETIME
    * record_status_id: TEXT <<ENUM(record_status)>>
  }

  entity "contract" as contract {
    * **contract_id**: INTEGER
    --
    * organization_id: INTEGER <<FK(organization)>>
    * contract_status_id: TEXT <<ENUM(contract_status)>>
    * document_reference: TEXT
    * payment_type_id: TEXT <<ENUM(payment_type)>>
    * periodicity_id: TEXT <<ENUM(periodicity)>>
    * start_date: DATETIME
    * end_date: DATETIME
    * contract_type_id: TEXT <<ENUM(contract_type)>>
    * date_of_last_review: DATETIME
    * date_of_next_review: DATETIME
    * date_of_contract_review: DATETIME
    * date_of_contract_approval: DATETIME
      created_at: DATETIME
    * record_status_id: TEXT <<ENUM(record_status)>>
  }

  entity "note" as note {
    * **note_id**: INTEGER
    --
    * party_id: INTEGER <<FK(party)>>
    * note: TEXT
      created_at: DATETIME
    * record_status_id: TEXT <<ENUM(record_status)>>
  }

  entity "risk_register" as risk_register {
    * **risk_register_id**: INTEGER
    --
    * description: TEXT
    * risk_subject_id: TEXT <<ENUM(risk_subject)>>
    * risk_type_id: TEXT <<ENUM(risk_type)>>
    * impact_to_the_organization: TEXT
    * rating_likelihood_id: TEXT <<ENUM(rating_value)>>
    * rating_impact_id: TEXT <<ENUM(rating_value)>>
    * rating_overall_risk_id: TEXT <<ENUM(rating_value)>>
    * control_effectivenes_controls_in_place: TEXT
    * control_effectivenes_control_effectiveness: INTEGER
    * control_effectivenes_over_all_residual_risk_rating_id: TEXT <<ENUM(rating_value)>>
    * mitigation_further_actions: TEXT
    * control_monitor_mitigation_actions_tracking_strategy: TEXT
    * control_monitor_action_due_date: DATE
    * control_monitor_risk_owner_id: INTEGER <<FK(party)>>
      created_at: DATETIME
    * record_status_id: TEXT <<ENUM(record_status)>>
  }

  entity "incident" as incident {
    * **incident_id**: INTEGER
    --
    * title: TEXT
    * incident_date: DATE
    * time_and_time_zone: DATETIME
    * category_id: TEXT <<ENUM(incident_category)>>
    * sub_category_id: TEXT <<ENUM(incident_sub_category)>>
    * severity_id: TEXT <<ENUM(severity_type)>>
    * priority_id: TEXT <<ENUM(priority_type)>>
    * internal_or_external_id: TEXT <<ENUM(incident_type)>>
    * location: TEXT
    * it_service_impacted: TEXT
    * impacted_modules: TEXT
    * impacted_dept: TEXT
    * reported_by_id: INTEGER <<FK(person)>>
    * reported_to_id: INTEGER <<FK(person)>>
    * brief_description: TEXT
    * detailed_description: TEXT
    * assigned_to_id: INTEGER <<FK(person)>>
    * assigned_date: DATE
    * investigation_details: TEXT
    * containment_details: TEXT
    * eradication_details: TEXT
    * bussiness_impact: TEXT
    * lessons_learned: TEXT
    * status_id: TEXT <<ENUM(incident_status)>>
    * closed_date: DATE
    * reopened_time: DATETIME
    * feedback_from_business: TEXT
    * reported_to_regulatory: TEXT
    * report_date: DATE
    * report_time: DATETIME
      created_at: DATETIME
    * record_status_id: TEXT <<ENUM(record_status)>>
  }

  entity "party_identifier" as party_identifier {
    * **party_identifier_id**: INTEGER
    --
    * identifier_number: TEXT
    * party_identifier_type_id: TEXT <<ENUM(party_identifier_type)>>
    * party_id: INTEGER <<FK(party)>>
      created_at: DATETIME
    * record_status_id: TEXT <<ENUM(record_status)>>
  }

  entity "raci_matrix_subject_boundary" as raci_matrix_subject_boundary {
    * **raci_matrix_subject_boundary_id**: INTEGER
    --
    * boundary_id: INTEGER <<FK(boundary)>>
    * raci_matrix_subject_id: TEXT <<ENUM(raci_matrix_subject)>>
      created_at: DATETIME
    * record_status_id: TEXT <<ENUM(record_status)>>
  }

  entity "raci_matrix_activity" as raci_matrix_activity {
    * **raci_matrix_activity_id**: INTEGER
    --
    * activity: TEXT
      created_at: DATETIME
    * record_status_id: TEXT <<ENUM(record_status)>>
  }

  entity "raci_matrix_assignment" as raci_matrix_assignment {
    * **raci_matrix_assignment_id**: INTEGER
    --
    * person_id: INTEGER <<FK(person)>>
    * subject_id: TEXT <<ENUM(raci_matrix_subject)>>
    * activity_id: INTEGER <<FK(raci_matrix_activity)>>
    * raci_matrix_assignment_nature_id: TEXT <<ENUM(raci_matrix_assignment_nature)>>
      created_at: DATETIME
    * record_status_id: TEXT <<ENUM(record_status)>>
  }

  entity "person_skill" as person_skill {
    * **person_skill_id**: INTEGER
    --
    * person_id: INTEGER <<FK(person)>>
    * skill_nature_id: TEXT <<ENUM(skill_nature)>>
    * skill_id: TEXT <<ENUM(skill)>>
      created_at: DATETIME
    * record_status_id: TEXT <<ENUM(record_status)>>
  }

  entity "key_performance" as key_performance {
    * **key_performance_id**: INTEGER
    --
    * title: TEXT
    * description: TEXT
      created_at: DATETIME
    * record_status_id: TEXT <<ENUM(record_status)>>
  }

  entity "key_performance_indicator" as key_performance_indicator {
    * **key_performance_indicator_id**: INTEGER
    --
    * key_performance_id: INTEGER <<FK(key_performance)>>
    * base_value: INTEGER
    * date: DATE
      created_at: DATETIME
    * record_status_id: TEXT <<ENUM(record_status)>>
  }

  boundary |o..o{ boundary
  graph |o..o{ boundary
  host |o..o{ host_boundary
  boundary |o..o{ host_boundary
  party |o..o{ person
  party |o..o{ organization
  party |o..o{ party_relation
  party |o..o{ party_relation
  party |o..o{ contact_electronic
  party |o..o{ contact_land
  party |o..o{ organization_role
  party |o..o{ organization_role
  person |o..o{ security_incident_response_team
  organization |o..o{ security_incident_response_team
  person |o..o{ awareness_training
  organization |o..o{ awareness_training
  party |o..o{ rating
  party |o..o{ rating
  organization |o..o{ contract
  party |o..o{ note
  party |o..o{ risk_register
  person |o..o{ incident
  person |o..o{ incident
  person |o..o{ incident
  party |o..o{ party_identifier
  boundary |o..o{ raci_matrix_subject_boundary
  person |o..o{ raci_matrix_assignment
  raci_matrix_activity |o..o{ raci_matrix_assignment
  person |o..o{ person_skill
  key_performance |o..o{ key_performance_indicator
@enduml